<svg xmlns="http://www.w3.org/2000/svg" version="1.1" xmlns:xlink="http://www.w3.org/1999/xlink" xmlns:svgjs="http://svgjs.dev/svgjs" viewBox="0 0 1920 1080"><rect width="1920" height="1080" fill="#a91919"></rect><g transform="matrix(1.15,0,0,1.15,-135.315814590454,-81)"><path d="M0,-1080C-10.951374478382434,-1003.5023765548285,-46.72972258853672,-771.9478368813013,-65.7082468702946,-621.0142593289709C-84.68677115205249,-470.0806817766404,-125.02780629369018,-334.3202382108194,-113.87114569054728,-174.39853468601711C-102.71448508740438,-14.476831161214818,-4.873771745403398,191.87300639390867,1.2317167485627465,338.51596181984297C7.337205242528891,485.1589172457773,-60.259461053730874,551.7463937197941,-77.23821472675041,705.4591978695887C-94.21696839976995,859.1720020193833,-99.50032008539294,1083.1758706764488,-100.64080528955452,1260.7927867186102C-101.7812904937161,1438.4097027607716,-100.854593499979,1621.2928252423253,-84.08112595171991,1771.160694122557C-67.30765840346082,1921.0285630027888,-14.01352099195332,2095.193449020426,0,2160L 1920 2160 L 1920 -1080 Z" fill="url(&quot;#SvgjsLinearGradient1044&quot;)"></path><path d="M240,-1080C250.83436202710052,-940.5392846099859,325.7978472336855,-529.5007959085412,305.00617216260315,-243.23570765991553C284.2144970915208,43.029380588710126,114.8806417035999,370.4797743875277,115.24994957350577,637.590529491754C115.61925744341164,904.7012845959803,286.430344310956,1105.6939112140678,307.22201938203835,1359.4288229654421C328.0136944531207,1613.1637347168164,251.2036698970064,2026.5714704942404,240,2160L 1920 2160 L 1920 -1080 Z" fill="url(&quot;#SvgjsLinearGradient1045&quot;)"></path><path d="M480,-1080C461.6297920654335,-1006.8855871907866,360.1937319514699,-802.9099673287848,369.7787523926009,-641.3135231447195C379.3637728337319,-479.71707896065425,500.3452860757406,-302.1563153008401,537.5101226467859,-110.42133489560871C574.6749592178313,81.31364550962266,620.0562757599699,322.98578106440857,592.7677718188729,509.09635928666876C565.4792678777759,695.206937508929,407.3655671415193,839.9512224544607,373.77909900020364,1006.2421344379525C340.192630858888,1172.5330464214444,373.54547947101275,1314.5488535939453,391.2489629709788,1506.8418311876198C408.9524464709449,1699.1348087812944,465.20816049516316,2051.140305197937,480,2160L 1920 2160 L 1920 -1080 Z" fill="url(&quot;#SvgjsLinearGradient1046&quot;)"></path><path d="M720,-1080C723.9561273031726,-1006.1795694955226,752.5300850993619,-788.1955912614401,743.7367638190354,-637.0774169731357C734.943442538709,-485.9592426848312,690.7599957169343,-310.77337487946886,667.2400723180408,-173.2909542701736C643.7201489191473,-35.80853366087834,576.5541271869536,47.28792985412937,602.6172234256743,187.81710668263582C628.680319664395,328.34628351114225,803.5550494940046,494.9980062534855,823.6186497503652,669.884106700865C843.6822500067258,844.7702071482445,738.6787483506233,1056.8310386915196,722.9988249638375,1237.1337093669129C707.3189015770516,1417.4363800423062,730.0389135902894,1597.8890823143763,729.5391094296499,1751.7001307532241C729.0393052690104,1905.511179192072,721.5898515716083,2091.950021792204,720,2160L 1920 2160 L 1920 -1080 Z" fill="url(&quot;#SvgjsLinearGradient1047&quot;)"></path><path d="M960,-1080C976.6842268284091,-957.9219763076356,1071.0742429299416,-560.4238842505298,1060.1053609704545,-347.5318578458136C1049.1364790109674,-134.63983144109736,902.8376249149024,-21.726916433822282,894.1867082430779,197.3521584282973C885.5357915712533,416.43123329041686,977.1852856119594,757.2716836142455,1008.1998609395068,966.9425913269038C1039.2144362670542,1176.613499039562,1088.3074703649465,1256.5347032587308,1080.274160208362,1455.3776047042468C1072.2408500517774,1654.2205061497627,980.0456933680604,2042.5629341173744,960,2160L 1920 2160 L 1920 -1080 Z" fill="url(&quot;#SvgjsLinearGradient1048&quot;)"></path><path d="M1200,-1080C1201.93484220474,-952.87974658687,1231.2381689469644,-594.001389822929,1211.6090532284406,-317.2784795212205C1191.979937509917,-40.55556921951205,1079.3378505092114,292.0858659545225,1082.2253056888574,580.3374618102508C1085.1127608685033,868.5890576659792,1209.3046685877932,1148.954005914858,1228.933784306317,1412.2310956131496C1248.5629000248407,1675.5081853114411,1204.8222973843863,2035.3718492688583,1200,2160L 1920 2160 L 1920 -1080 Z" fill="url(&quot;#SvgjsLinearGradient1049&quot;)"></path><path d="M1440,-1080C1447.0978978419744,-981.8963838227222,1478.4683000163973,-709.4329615177078,1482.5873870518462,-491.37830293633357C1486.7064740872952,-273.32364435495936,1474.7714884551592,15.30916259709025,1464.7145222126937,228.32795148824505C1454.6575559702283,441.3467403793999,1413.991692883938,583.3955560628862,1422.245589597054,786.7344304105952C1430.4994863101701,990.0733047583043,1511.2788340908992,1219.4836026429323,1514.2379024913903,1448.3611975744998C1517.1969708918814,1677.2387925060673,1452.372983748565,2041.3935329290832,1440,2160L 1920 2160 L 1920 -1080 Z" fill="url(&quot;#SvgjsLinearGradient1050&quot;)"></path><path d="M1680,-1080C1695.7128072945482,-980.5303454269905,1765.3991726878944,-697.9430309359404,1774.2768437672892,-483.18207256194273C1783.154514846684,-268.421114187945,1739.3403986455621,-3.8270675266380465,1733.2660264763683,208.56575024398643C1727.1916543071745,420.95856801461093,1729.690386274275,587.9756179754479,1737.8306107521262,791.1748340618042C1745.9708352299774,994.3740501481604,1791.7458084688305,1199.623519105758,1782.1073733434762,1427.7610467621241C1772.4689382181218,1655.8985744184902,1697.017895557246,2037.960174460354,1680,2160L 1920 2160 L 1920 -1080 Z" fill="url(&quot;#SvgjsLinearGradient1051&quot;)"></path></g><defs><linearGradient x1="0.1" y1="0" x2="0" y2="1" id="SvgjsLinearGradient1044"><stop stop-color="#a91919" offset="0"></stop><stop stop-color="#a91931" offset="0"></stop></linearGradient><linearGradient x1="0.1" y1="0" x2="0" y2="1" id="SvgjsLinearGradient1045"><stop stop-color="#d21f1f" offset="0"></stop><stop stop-color="#d21f3d" offset="0.125"></stop></linearGradient><linearGradient x1="0.1" y1="0" x2="0" y2="1" id="SvgjsLinearGradient1046"><stop stop-color="#e23d3d" offset="0"></stop><stop stop-color="#e23d58" offset="0.25"></stop></linearGradient><linearGradient x1="0.1" y1="0" x2="0" y2="1" id="SvgjsLinearGradient1047"><stop stop-color="#e86666" offset="0"></stop><stop stop-color="#e8667c" offset="0.375"></stop></linearGradient><linearGradient x1="0.1" y1="0" x2="0" y2="1" id="SvgjsLinearGradient1048"><stop stop-color="#ee8f8f" offset="0"></stop><stop stop-color="#ee8f9f" offset="0.5"></stop></linearGradient><linearGradient x1="0.1" y1="0" x2="0" y2="1" id="SvgjsLinearGradient1049"><stop stop-color="#f4b7b7" offset="0"></stop><stop stop-color="#f4b7c1" offset="0.625"></stop></linearGradient><linearGradient x1="0.1" y1="0" x2="0" y2="1" id="SvgjsLinearGradient1050"><stop stop-color="#fae0e0" offset="0"></stop><stop stop-color="#fae0e4" offset="0.75"></stop></linearGradient><linearGradient x1="0.1" y1="0" x2="0" y2="1" id="SvgjsLinearGradient1051"><stop stop-color="#ffffff" offset="0"></stop><stop stop-color="#ffffff" offset="0.875"></stop></linearGradient></defs></svg>